<!-- Generated by IcoMoon.io -->
<svg version="1.1" xmlns="http://www.w3.org/2000/svg" width="512" height="512" viewBox="0 0 512 512">
<title></title>
<g id="icomoon-ignore">
</g>
<path fill="#000" d="M0 227.702v-65.81l254.026-161.893 257.974 161.893v65.81l-257.974-157.944-134.252 85.553v243.496l-59.228 52.648v-259.291l-60.545 35.538z"></path>
<path fill="#000" d="M61.861 488.308v15.794h392.226v-188.216l-14.478 5.265-30.273-21.059-2.632-17.111-11.846-6.581v164.524h-188.216l76.339-101.346-3.947-7.897 57.913-64.493 7.897 5.264 10.529-3.949c17.11-17.11 21.225-17.227 27.639-19.743l11.846 2.632 7.897 3.948 14.478 14.478 1.315 18.427 19.743 14.478h9.213l30.273-32.905v-10.529l-15.795-14.478-21.059-2.632-13.161-10.53c-3.88-5.169-5.151-11.243-6.581-25.007-1.317-9.213-22.375-25.007-43.435-42.118-8.788-7.14-46.067-18.427-97.399-17.111 0 0-14.478 0.825-30.273 2.633-15.793 1.808-31.791 5.218-40.801 10.53-3.948 3.948-4.758 7.762-3.948 11.846 1.277 6.446 17.11 1.315 17.11 1.315s22.375-5.264 53.964-5.264c15.794 0 35.049 6.161 38.17 10.53 6.581 9.213 6.581 13.161 2.632 25.007l-15.794 19.744v11.845l9.214 10.53-61.861 60.545-7.898-3.949-179.002 185.584z"></path>
</svg>
